<svg xmlns="http://www.w3.org/2000/svg" width="960" height="600" viewBox="0 0 960 600" role="img" aria-labelledby="title desc">
  <title id="title">Voice to text translator mockup</title>
  <desc id="desc">A speech recognition interface with waveform, transcript, and generated notes panel.</desc>
  <defs>
    <linearGradient id="bg" x1="0" y1="0" x2="1" y2="1">
      <stop offset="0" stop-color="#1d4ed8"/>
      <stop offset="1" stop-color="#7c3aed"/>
    </linearGradient>
    <filter id="shadow" x="-20%" y="-20%" width="140%" height="140%">
      <feDropShadow dx="0" dy="18" stdDeviation="18" flood-color="#172033" flood-opacity=".2"/>
    </filter>
  </defs>
  <rect width="960" height="600" rx="32" fill="url(#bg)"/>
  <path d="M54 465 C190 365 265 520 394 414 C514 315 622 333 886 180" fill="none" stroke="#fff" stroke-width="90" opacity=".08"/>
  <rect x="86" y="74" width="788" height="452" rx="24" fill="#f8fafc" filter="url(#shadow)"/>
  <rect x="122" y="112" width="716" height="92" rx="20" fill="#eef5ff"/>
  <circle cx="176" cy="158" r="28" fill="#2563eb"/>
  <rect x="168" y="141" width="16" height="34" rx="8" fill="#fff"/>
  <path d="M156 162 C156 186 196 186 196 162" fill="none" stroke="#fff" stroke-width="7" stroke-linecap="round"/>
  <text x="228" y="151" fill="#172033" font-family="Inter, Arial, sans-serif" font-size="26" font-weight="800">Voice to Text Translator</text>
  <text x="228" y="180" fill="#5b667a" font-family="Inter, Arial, sans-serif" font-size="16">Live transcription and notes</text>
  <rect x="122" y="234" width="332" height="250" rx="20" fill="#fff"/>
  <text x="154" y="276" fill="#172033" font-family="Inter, Arial, sans-serif" font-size="18" font-weight="800">Audio Input</text>
  <g stroke="#2563eb" stroke-width="10" stroke-linecap="round">
    <line x1="166" y1="394" x2="166" y2="346"/>
    <line x1="198" y1="414" x2="198" y2="326"/>
    <line x1="230" y1="382" x2="230" y2="358"/>
    <line x1="262" y1="426" x2="262" y2="314"/>
    <line x1="294" y1="400" x2="294" y2="340"/>
    <line x1="326" y1="418" x2="326" y2="322"/>
    <line x1="358" y1="390" x2="358" y2="350"/>
    <line x1="390" y1="410" x2="390" y2="330"/>
  </g>
  <rect x="488" y="234" width="350" height="250" rx="20" fill="#fff"/>
  <text x="520" y="276" fill="#172033" font-family="Inter, Arial, sans-serif" font-size="18" font-weight="800">Transcript</text>
  <rect x="520" y="310" width="248" height="14" rx="7" fill="#8ba0bd"/>
  <rect x="520" y="344" width="282" height="14" rx="7" fill="#8ba0bd"/>
  <rect x="520" y="378" width="226" height="14" rx="7" fill="#8ba0bd"/>
  <rect x="520" y="426" width="108" height="34" rx="12" fill="#dbeafe"/>
  <text x="543" y="449" fill="#1d4ed8" font-family="Inter, Arial, sans-serif" font-size="14" font-weight="800">Notes</text>
</svg>
