<svg xmlns="http://www.w3.org/2000/svg" viewBox="0 0 24 24" role="img" aria-hidden="true">
  <path fill="#18211f" d="M12 2a10 10 0 0 0-3.16 19.49c.5.09.68-.22.68-.48v-1.7c-2.78.6-3.37-1.18-3.37-1.18a2.65 2.65 0 0 0-1.11-1.46c-.91-.62.07-.61.07-.61a2.1 2.1 0 0 1 1.53 1.03 2.13 2.13 0 0 0 2.91.83 2.14 2.14 0 0 1 .64-1.34c-2.22-.25-4.56-1.11-4.56-4.94a3.87 3.87 0 0 1 1.03-2.68 3.6 3.6 0 0 1 .1-2.64s.84-.27 2.75 1.02a9.45 9.45 0 0 1 5 0c1.91-1.29 2.75-1.02 2.75-1.02.55 1.37.2 2.39.1 2.64a3.86 3.86 0 0 1 1.03 2.68c0 3.84-2.34 4.68-4.57 4.93a2.39 2.39 0 0 1 .68 1.86v2.76c0 .27.18.58.69.48A10 10 0 0 0 12 2Z"/>
</svg>
